<svg width="118" height="26" viewBox="0 0 118 26" fill="none" xmlns="http://www.w3.org/2000/svg">
<path d="M18.6377 11.9472C18.545 11.8507 18.4391 11.768 18.3232 11.7015L4.12236 3.44708C3.90327 3.32107 3.65517 3.25514 3.40285 3.25587C3.15052 3.25659 2.9028 3.32396 2.68443 3.45123C2.46606 3.5785 2.28469 3.76122 2.15842 3.98114C2.03215 4.20106 1.96541 4.45048 1.96487 4.7045V21.211C1.96248 21.5812 2.10245 21.938 2.35549 22.2066C2.57815 22.4454 2.87463 22.6012 3.19656 22.6485C3.51848 22.6959 3.84684 22.632 4.12804 22.4673L18.3289 14.214C18.5185 14.1035 18.6806 13.9509 18.8029 13.7679C18.9252 13.5849 19.0046 13.3762 19.0349 13.1578C19.0652 12.9393 19.0457 12.7168 18.9779 12.507C18.91 12.2973 18.7957 12.1059 18.6434 11.9472H18.6377ZM8.9858 15.3057C8.9858 15.9138 8.74582 16.4971 8.31864 16.9271C7.89145 17.3572 7.31207 17.5988 6.70795 17.5988C6.10382 17.5988 5.52444 17.3572 5.09726 16.9271C4.67008 16.4971 4.43009 15.9138 4.43009 15.3057V10.5389C4.43009 10.2378 4.48901 9.93961 4.60348 9.6614C4.71796 9.38319 4.88574 9.1304 5.09726 8.91747C5.30878 8.70454 5.55989 8.53563 5.83625 8.42039C6.11261 8.30516 6.40881 8.24584 6.70795 8.24584C7.00708 8.24584 7.30328 8.30516 7.57965 8.42039C7.85601 8.53563 8.10712 8.70454 8.31864 8.91747C8.53015 9.1304 8.69794 9.38319 8.81241 9.6614C8.92689 9.93961 8.9858 10.2378 8.9858 10.5389V15.3057ZM13.7698 14.5512C13.4047 14.9185 12.9244 15.147 12.4107 15.1978C11.8971 15.2486 11.3818 15.1186 10.9527 14.8299C10.5235 14.5412 10.2071 14.1116 10.0573 13.6144C9.90747 13.1172 9.93351 12.5831 10.131 12.103C10.3284 11.623 10.6851 11.2267 11.1403 10.9816C11.5954 10.7366 12.1209 10.658 12.6271 10.7592C13.1334 10.8604 13.5891 11.1352 13.9167 11.5367C14.2443 11.9382 14.4235 12.4416 14.4238 12.9612C14.4246 13.2565 14.3673 13.549 14.2552 13.8219C14.1431 14.0948 13.9785 14.3427 13.7709 14.5512H13.7698Z" fill="url(#paint0_radial_1361_7743)"/>
<path d="M38.1783 14.4041H30.7123C30.7736 15.1471 31.0317 15.7286 31.4867 16.1485C31.9431 16.5701 32.5446 16.7964 33.1639 16.7795C34.1222 16.7795 34.8035 16.3653 35.2078 15.5369H37.9921C37.7053 16.5145 37.1097 17.3713 36.2956 17.9775C35.4629 18.6138 34.4368 18.9323 33.2172 18.9331C32.2934 18.9483 31.3815 18.721 30.5715 18.2735C29.7982 17.8397 29.1655 17.1909 28.7489 16.4045C28.3121 15.5998 28.0938 14.6716 28.0938 13.6199C28.0938 12.553 28.3091 11.6191 28.7399 10.8182C29.1479 10.0353 29.7747 9.38992 30.5431 8.96176C31.3591 8.53822 32.2634 8.31571 33.1815 8.31253C34.0997 8.30935 35.0054 8.52559 35.8244 8.94347C36.5824 9.35192 37.2052 9.97454 37.6162 10.7347C38.0511 11.5531 38.2701 12.4702 38.2521 13.3982C38.2548 13.7349 38.2301 14.0714 38.1783 14.4041ZM35.5791 12.6551C35.584 12.3515 35.5221 12.0506 35.3979 11.7739C35.2736 11.4972 35.09 11.2516 34.8603 11.0548C34.3818 10.6484 33.7715 10.4335 33.1457 10.4512C32.5537 10.4341 31.9772 10.6432 31.5321 11.0365C31.0961 11.4252 30.8288 11.9662 30.7304 12.6597L35.5791 12.6551Z" fill="white"/>
<path d="M43.1976 16.367L45.7786 8.47951H48.5255L45.2892 17.2814C45.13 17.7154 44.8426 18.0898 44.4655 18.3543C44.0885 18.6187 43.6401 18.7605 43.1806 18.7606C42.7199 18.7602 42.2705 18.6174 41.893 18.3517C41.5155 18.0859 41.2281 17.71 41.0696 17.2746L37.8516 8.47266H40.6166L43.1976 16.367Z" fill="white"/>
<path d="M50.6008 18.2687C49.8209 17.8358 49.1788 17.1893 48.7487 16.4043C48.2879 15.5507 48.0558 14.591 48.0754 13.6197C48.0557 12.6464 48.2944 11.6855 48.7669 10.8362C49.2112 10.0488 49.8657 9.40252 50.6564 8.97066C51.4819 8.53826 52.3988 8.3125 53.3294 8.3125C54.26 8.3125 55.1769 8.53826 56.0024 8.97066C56.7934 9.40217 57.448 10.0485 57.8919 10.8362C58.3537 11.641 58.5842 12.5688 58.5835 13.6197C58.6032 14.5956 58.3578 15.5585 57.8738 16.4043C57.4179 17.1919 56.7545 17.8371 55.957 18.2687C55.1272 18.7147 54.1985 18.9417 53.2579 18.9283C52.3305 18.943 51.4151 18.7158 50.6008 18.2687ZM54.5751 16.3254C54.9963 16.0863 55.3392 15.7288 55.5619 15.2966C55.8211 14.7792 55.948 14.2047 55.9309 13.6254C55.9309 12.6492 55.6758 11.8978 55.1656 11.3712C54.9251 11.1161 54.6346 10.9143 54.3124 10.7785C53.9902 10.6427 53.6434 10.5759 53.2942 10.5824C52.9479 10.574 52.6038 10.6394 52.2844 10.7743C51.965 10.9093 51.6776 11.1107 51.441 11.3655C50.9437 11.8913 50.695 12.6427 50.695 13.6197C50.695 14.5967 50.9376 15.3484 51.4229 15.875C51.6544 16.1314 51.938 16.3345 52.2544 16.4706C52.5709 16.6067 52.9127 16.6726 53.2567 16.6638C53.7178 16.6651 54.1714 16.547 54.5739 16.3209L54.5751 16.3254Z" fill="white"/>
<path d="M59.7041 10.8263C60.1137 10.0496 60.7338 9.40583 61.4925 8.9699C62.2918 8.5213 63.1949 8.2941 64.1099 8.31147C65.3764 8.31147 66.4241 8.63002 67.253 9.26711C68.0819 9.9042 68.6395 10.7981 68.9256 11.9488H66.1379C66.0074 11.5276 65.7454 11.16 65.3908 10.9006C65.0099 10.6356 64.5545 10.5009 64.0917 10.5165C63.3536 10.5165 62.77 10.7855 62.3407 11.3236C61.9115 11.8616 61.6962 12.6237 61.6946 13.6098C61.6946 14.5959 61.9096 15.3557 62.3396 15.8891C62.7696 16.4226 63.3533 16.6916 64.0906 16.6962C65.1353 16.6962 65.8166 16.2264 66.1345 15.2867H68.9256C68.6425 16.4001 68.0831 17.2845 67.2473 17.9399C66.4116 18.5953 65.3669 18.9233 64.1133 18.9241C63.1982 18.9417 62.2949 18.714 61.4959 18.2645C60.7371 17.8294 60.1168 17.1859 59.7075 16.4093C59.2775 15.6114 59.0625 14.6801 59.0625 13.6155C59.0625 12.5509 59.2764 11.6212 59.7041 10.8263Z" fill="white"/>
<path d="M69.9549 10.8173C70.3226 10.0555 70.8987 9.41513 71.6153 8.9713C72.3319 8.52748 73.1594 8.29864 74.0007 8.31164C74.6957 8.29565 75.3836 8.45521 76.0015 8.77574C76.5403 9.05722 77.0094 9.45684 77.3744 9.94514V8.47853H79.9747V18.7665H77.3744V17.261C77.0185 17.7648 76.5477 18.1753 76.0015 18.4579C75.3784 18.7829 74.6843 18.9456 73.9826 18.9311C73.1516 18.9396 72.3357 18.7075 71.632 18.2624C70.9114 17.8019 70.331 17.15 69.9549 16.3786C69.5297 15.5109 69.3179 14.5532 69.3371 13.5859C69.318 12.6264 69.53 11.6765 69.9549 10.8173ZM77.0065 11.9959C76.7777 11.5625 76.4326 11.2025 76.0106 10.9568C75.602 10.7179 75.1375 10.5928 74.665 10.5944C74.1993 10.591 73.7411 10.7125 73.3376 10.9465C72.9218 11.1927 72.5807 11.5484 72.3508 11.9753C72.0898 12.467 71.9595 13.0183 71.9727 13.5757C71.9594 14.1418 72.0895 14.702 72.3508 15.2034C72.5807 15.6432 72.9249 16.0118 73.3467 16.27C73.7437 16.5139 74.1999 16.6424 74.665 16.6415C75.1375 16.6431 75.602 16.518 76.0106 16.2791C76.4326 16.0334 76.7777 15.6734 77.0065 15.24C77.2634 14.7385 77.39 14.1797 77.3744 13.6157C77.3894 13.0531 77.2629 12.4959 77.0065 11.9959Z" fill="white"/>
<path d="M84.2373 5.0293V18.7603H81.6562V5.0293H84.2373Z" fill="white"/>
<path d="M86.1186 6.81833C85.9713 6.67969 85.8546 6.5113 85.7764 6.32416C85.6981 6.13703 85.6599 5.93537 85.6644 5.73238C85.66 5.52956 85.6982 5.3281 85.7765 5.14116C85.8548 4.95423 85.9713 4.78603 86.1186 4.64757C86.4309 4.36639 86.8352 4.21094 87.2541 4.21094C87.6731 4.21094 88.0774 4.36639 88.3897 4.64757C88.5369 4.78608 88.6534 4.95428 88.7317 5.14121C88.81 5.32813 88.8482 5.52957 88.8439 5.73238C88.8483 5.93536 88.8101 6.137 88.7318 6.32412C88.6536 6.51124 88.537 6.67965 88.3897 6.81833C88.0774 7.09951 87.6731 7.25496 87.2541 7.25496C86.8352 7.25496 86.4309 7.09951 86.1186 6.81833ZM88.5248 8.47927V18.7672H85.9438V8.47927H88.5248Z" fill="white"/>
<path d="M92.6261 16.6254H97.1795V18.7608H89.6953V17.6474C89.6943 17.0086 89.8969 16.3864 90.2733 15.8721L94.1522 10.6138H89.7135V8.47852H97.1239V9.58504C97.1239 10.2283 96.9172 10.8543 96.5346 11.3694L92.6261 16.6254Z" fill="white"/>
<path d="M107.624 14.4041H100.155C100.216 15.1471 100.474 15.7286 100.929 16.1485C101.386 16.5701 101.987 16.7964 102.606 16.7795C103.565 16.7795 104.247 16.3653 104.65 15.5369H107.433C107.147 16.5144 106.552 17.3711 105.738 17.9775C104.901 18.6138 103.874 18.9323 102.658 18.9331C101.735 18.9482 100.823 18.7209 100.013 18.2735C99.2393 17.8413 98.6058 17.1941 98.1879 16.4091C97.758 15.6013 97.543 14.6716 97.543 13.6199C97.543 12.553 97.758 11.6191 98.1879 10.8182C98.5972 10.0351 99.2252 9.38972 99.9946 8.96177C100.811 8.53822 101.715 8.31571 102.634 8.31253C103.552 8.30936 104.458 8.52559 105.277 8.94348C106.032 9.35307 106.652 9.9756 107.061 10.7347C107.497 11.5528 107.716 12.47 107.698 13.3982C107.701 13.7349 107.676 14.0714 107.624 14.4041ZM105.024 12.6597C105.029 12.3561 104.967 12.0552 104.843 11.7785C104.718 11.5018 104.535 11.2562 104.305 11.0594C103.827 10.6529 103.216 10.438 102.59 10.4558C101.999 10.4386 101.423 10.6477 100.978 11.0411C100.54 11.4297 100.273 11.9708 100.175 12.6643L105.024 12.6597Z" fill="white"/>
<path d="M107.789 18.747C107.734 18.6932 107.691 18.629 107.662 18.5583C107.632 18.4876 107.617 18.4116 107.617 18.3349C107.617 18.2582 107.632 18.1823 107.662 18.1115C107.691 18.0408 107.734 17.9767 107.789 17.9228C107.847 17.8677 107.915 17.8248 107.99 17.7965C108.065 17.7683 108.145 17.7553 108.225 17.7582C108.303 17.7556 108.381 17.7688 108.455 17.7971C108.528 17.8253 108.595 17.8681 108.652 17.9228C108.759 18.0326 108.82 18.1807 108.82 18.3349C108.82 18.4892 108.759 18.6373 108.652 18.747C108.595 18.8018 108.528 18.8445 108.455 18.8728C108.381 18.9011 108.303 18.9143 108.225 18.9116C108.145 18.9146 108.065 18.9016 107.99 18.8733C107.915 18.8451 107.847 18.8021 107.789 18.747Z" fill="white"/>
<path d="M109.691 15.8507C109.834 15.5606 110.055 15.3166 110.328 15.1466C110.599 14.9823 110.91 14.8972 111.227 14.9008C111.49 14.8947 111.751 14.9552 111.985 15.0769C112.19 15.1834 112.368 15.335 112.506 15.5204V14.9637H113.492V18.8605H112.506V18.289C112.371 18.4811 112.193 18.6379 111.985 18.7462C111.749 18.869 111.486 18.9307 111.22 18.9257C110.905 18.929 110.595 18.8409 110.328 18.6719C110.055 18.4973 109.834 18.2501 109.691 17.9575C109.531 17.6281 109.45 17.2648 109.457 16.8978C109.451 16.535 109.531 16.1759 109.691 15.8507ZM112.366 16.2977C112.279 16.1333 112.148 15.9966 111.989 15.9033C111.833 15.8127 111.657 15.7654 111.478 15.7661C111.298 15.7643 111.121 15.8123 110.966 15.9048C110.812 15.9973 110.685 16.1309 110.601 16.2908C110.501 16.4776 110.452 16.6871 110.457 16.899C110.452 17.1133 110.502 17.3253 110.601 17.5151C110.688 17.6819 110.818 17.8218 110.978 17.9198C111.129 18.0119 111.301 18.0605 111.478 18.0604C111.657 18.0611 111.833 18.0138 111.989 17.9232C112.148 17.83 112.279 17.6938 112.366 17.53C112.458 17.338 112.506 17.1273 112.506 16.9138C112.506 16.7004 112.458 16.4897 112.366 16.2977Z" fill="white"/>
<path d="M114.193 14.3344C114.138 14.2811 114.095 14.2172 114.065 14.1465C114.035 14.0758 114.02 13.9997 114.02 13.9229C114.02 13.8461 114.035 13.77 114.065 13.6993C114.095 13.6286 114.138 13.5647 114.193 13.5114C114.312 13.4047 114.465 13.3457 114.624 13.3457C114.782 13.3457 114.936 13.4047 115.054 13.5114C115.108 13.5653 115.151 13.6294 115.18 13.7C115.209 13.7706 115.224 13.8464 115.224 13.9229C115.224 13.9994 115.209 14.0752 115.18 14.1458C115.151 14.2164 115.108 14.2805 115.054 14.3344C114.936 14.4411 114.782 14.5001 114.624 14.5001C114.465 14.5001 114.312 14.4411 114.193 14.3344ZM115.102 14.9643V18.8611H114.123V14.9643H115.102Z" fill="white"/>
<path d="M27.5918 8.47852V11.0757H25.6285C25.517 11.0757 25.4066 11.0978 25.3036 11.1408C25.2006 11.1837 25.1071 11.2468 25.0283 11.3262C24.9495 11.4056 24.8871 11.4998 24.8445 11.6036C24.8019 11.7073 24.7801 11.8185 24.7803 11.9307V18.7608H22.1992V12.6257C22.1992 11.5258 22.6333 10.471 23.4058 9.6932C24.1784 8.91545 25.2263 8.47852 26.3189 8.47852H27.5918Z" fill="white"/>
<path d="M116.309 18.2998C116.324 18.2797 116.332 18.2552 116.332 18.2301C116.332 18.2077 116.326 18.1857 116.316 18.1661C116.304 18.147 116.287 18.1316 116.267 18.1215C116.242 18.1105 116.215 18.105 116.187 18.1055H116.027V18.4999H116.123V18.3513H116.145L116.227 18.4999H116.341L116.25 18.3433C116.274 18.3357 116.295 18.3205 116.309 18.2998ZM116.222 18.2701C116.21 18.2794 116.196 18.2839 116.182 18.2827H116.123V18.1855H116.182C116.196 18.1847 116.21 18.1892 116.222 18.1981C116.23 18.2079 116.234 18.2205 116.234 18.2335C116.235 18.2469 116.23 18.26 116.222 18.2701Z" fill="white"/>
<path d="M116.173 17.7598C116.065 17.7598 115.959 17.7921 115.869 17.8528C115.779 17.9135 115.708 17.9997 115.667 18.1006C115.625 18.2015 115.614 18.3125 115.636 18.4196C115.657 18.5267 115.709 18.6251 115.786 18.7023C115.862 18.7795 115.96 18.8321 116.066 18.8534C116.173 18.8747 116.283 18.8638 116.383 18.822C116.484 18.7802 116.569 18.7094 116.629 18.6186C116.69 18.5278 116.722 18.4211 116.722 18.3119C116.722 18.1655 116.664 18.025 116.561 17.9215C116.458 17.8179 116.319 17.7598 116.173 17.7598ZM116.173 18.7154C116.094 18.7154 116.017 18.6917 115.951 18.6474C115.885 18.6031 115.833 18.54 115.803 18.4663C115.773 18.3926 115.765 18.3114 115.78 18.2332C115.796 18.1549 115.834 18.083 115.89 18.0266C115.946 17.9701 116.018 17.9317 116.095 17.9161C116.173 17.9006 116.254 17.9085 116.327 17.9391C116.4 17.9696 116.463 18.0213 116.507 18.0877C116.551 18.1541 116.574 18.2321 116.574 18.3119C116.574 18.4189 116.532 18.5215 116.457 18.5972C116.382 18.6729 116.28 18.7154 116.173 18.7154Z" fill="white"/>
<defs>
<radialGradient id="paint0_radial_1361_7743" cx="0" cy="0" r="1" gradientUnits="userSpaceOnUse" gradientTransform="translate(-1.54838 -0.0523028) rotate(40.8744) scale(46.1058 35.0406)">
<stop offset="0.0963224" stop-color="#FFC542"/>
<stop offset="0.435815" stop-color="#FE3E63"/>
<stop offset="0.707757" stop-color="#8835FF"/>
<stop offset="0.910465" stop-color="#1BD6FF"/>
</radialGradient>
</defs>
</svg>
